<svg
    xmlns="http://www.w3.org/2000/svg"
    viewBox="0 0 256 256"
    fill="none"
>
    <path
        d="M214.415 241.116L208.828 196.419C207.985 189.673 203.343 184.01 196.893 181.86L175.35 174.679C172.391 173.692 169.146 174.321 166.865 176.264L160.519 174.149C156.915 172.948 154.483 169.574 154.483 165.775V151.539L173.496 143.617C183.365 139.506 189.793 129.863 189.793 119.172V114.758C197.106 114.758 203.034 108.83 203.034 101.517C203.034 98.2183 201.825 95.2037 199.83 92.8853C203.577 79.2478 214.107 36.1097 203.034 17.6551L207.448 0C207.448 0 161.103 1.10345 136.827 8.82757L145.655 0C145.655 0 83.5862 0 70.6245 22.0651L70.6207 22.0689C70.6207 22.0689 48.5518 21.8852 48.5518 48.5516C48.5518 58.3116 53.9956 82.6823 56.3327 92.6977C54.24 95.0393 52.9655 98.1289 52.9655 101.517C52.9655 108.83 58.8938 114.758 66.2069 114.758V119.172C66.2069 129.863 72.635 139.505 82.5037 143.618L101.517 151.54V165.775C101.517 169.575 99.0857 172.948 95.4813 174.15L89.1354 176.265C86.854 174.321 83.6088 173.693 80.6504 174.679L59.1073 181.861C52.6571 184.011 48.0149 189.674 47.1719 196.42L41.5851 241.116C40.597 249.019 46.7592 255.999 54.7239 255.999H54.848H201.152H201.276C209.24 255.999 215.403 249.019 214.415 241.116Z"
        fill="#FFD7A3"
    />
    <path
        d="M154.482 151.54L101.517 151.541V165.776C101.517 168.953 99.7593 171.751 97.0939 173.312C134.111 179.79 154.482 151.54 154.482 151.54Z"
        fill="#FDC88E"
    />
    <path
        d="M57.3796 97.1032C57.3796 97.1032 48.552 60.9797 48.552 48.5516C48.552 21.8852 70.6209 22.0689 70.6209 22.0689L70.6248 22.0651C83.5864 0 145.655 0 145.655 0L136.828 8.82757C161.103 1.10345 207.448 0 207.448 0L203.034 17.6551C216.276 39.7241 198.621 97.1032 198.621 97.1032H57.3796Z"
        fill="#734A3E"
    />
    <path
        d="M145.655 0C145.655 0 83.5864 0 70.6248 22.0651L70.6209 22.0689C70.6209 22.0689 48.552 21.8852 48.552 48.5516C48.552 60.9797 57.3796 97.1032 57.3796 97.1032C57.3796 97.1032 149.15 56.092 207.448 0C207.448 0 161.104 1.10345 136.828 8.82757L145.655 0Z"
        fill="#623F33"
    />
    <path
        d="M189.793 88.2764V79.4488C189.793 67.2607 179.912 57.3799 167.724 57.3799H88.276C76.0879 57.3799 66.2071 67.2607 66.2071 79.4488V88.2764C58.894 88.2764 52.9658 94.2046 52.9658 101.518C52.9658 108.831 58.894 114.759 66.2071 114.759V119.173C66.2071 129.864 72.6352 139.506 82.5039 143.619L111.023 155.502C116.402 157.743 122.172 158.897 128 158.897C133.827 158.897 139.596 157.743 144.975 155.502L173.496 143.618C183.365 139.507 189.793 129.864 189.793 119.173V114.759C197.106 114.759 203.034 108.831 203.034 101.518C203.034 94.2046 197.106 88.2764 189.793 88.2764Z"
        fill="#FFE1B2"
    />
    <path
        d="M97.1036 105.931C94.676 105.931 92.6898 103.945 92.6898 101.517V97.1032C92.6898 94.6757 94.676 92.6895 97.1036 92.6895C99.5312 92.6895 101.517 94.6757 101.517 97.1032V101.517C101.517 103.945 99.5312 105.931 97.1036 105.931Z"
        fill="#623F33"
    />
    <path
        d="M158.896 105.931C156.469 105.931 154.482 103.945 154.482 101.517V97.1032C154.482 94.6757 156.469 92.6895 158.896 92.6895C161.324 92.6895 163.31 94.6757 163.31 97.1032V101.517C163.31 103.945 161.324 105.931 158.896 105.931Z"
        fill="#623F33"
    />
    <path
        d="M128 136.949C120.153 136.949 112.813 135.018 107.862 131.65C105.847 130.279 105.323 127.533 106.697 125.518C108.065 123.506 110.813 122.982 112.828 124.353C116.298 126.712 121.97 128.122 128 128.122C134.031 128.122 139.703 126.712 143.173 124.353C145.192 122.978 147.933 123.503 149.304 125.518C150.677 127.533 150.153 130.279 148.138 131.65C143.188 135.018 135.847 136.949 128 136.949Z"
        fill="#E4B07B"
    />
    <path
        d="M214.415 241.116L208.829 196.42C207.985 189.673 203.343 184.01 196.893 181.86L175.35 174.679C171.598 173.428 167.378 174.764 165.258 178.103C157.434 190.431 143.682 198.62 128 198.62C112.318 198.62 98.5661 190.43 90.7421 178.103C88.623 174.764 84.4023 173.428 80.6506 174.679L59.1074 181.86C52.6572 184.01 48.015 189.673 47.172 196.42L41.5853 241.116C40.5971 249.019 46.7599 256 54.7245 256H201.277C209.241 256 215.403 249.019 214.415 241.116Z"
        fill="#00BEA4"
    />
    <path
        d="M50.8515 187.679C48.8917 190.16 47.5797 193.157 47.172 196.42L41.5853 241.116C40.5971 249.019 46.7599 256 54.7246 256H79.4484V227.273C79.4484 223.027 77.9179 218.923 75.1378 215.713L50.8515 187.679Z"
        fill="#00AB9A"
    />
    <path
        d="M205.149 187.679C207.108 190.16 208.42 193.157 208.828 196.42L214.415 241.116C215.403 249.019 209.24 256 201.275 256H176.552V227.273C176.552 223.027 178.082 218.923 180.862 215.713L205.149 187.679Z"
        fill="#00AB9A"
    />
    <path
        d="M89.3773 134.468C85.801 130.634 83.8628 125.574 83.8628 120.33V70.3112C97.9113 69.2579 142.204 65.4273 167.725 57.3799H88.276C86.7566 57.3799 85.2851 57.557 83.8623 57.8659V57.8246C73.7894 59.8698 66.2071 68.7724 66.2071 79.4488V88.2764C58.894 88.2764 52.9658 94.2046 52.9658 101.518C52.9658 108.831 58.894 114.759 66.2071 114.759V119.173C66.2071 129.864 72.6352 139.507 82.5039 143.619L111.022 155.502C112.418 156.083 113.843 156.584 115.286 157.018C102.682 147.798 94.2926 139.738 89.3773 134.468Z"
        fill="#FFD7A3"
    />
</svg>