<svg width="31" height="31" viewBox="0 0 31 31" fill="none" xmlns="http://www.w3.org/2000/svg">
<g id="Icon - Logout">
<path id="Vector" d="M14.453 2.5152C17.575 2.5152 20.1212 5.01777 20.1212 8.09883V14.1226H12.4441C11.8939 14.1226 11.4589 14.5502 11.4589 15.091C11.4589 15.6191 11.8939 16.0593 12.4441 16.0593H20.1212V22.0705C20.1212 25.1516 17.575 27.6667 14.4274 27.6667H8.19616C5.06136 27.6667 2.51514 25.1641 2.51514 22.0831V8.11141C2.51514 5.01777 5.07416 2.5152 8.20896 2.5152H14.453ZM23.3157 10.7526C23.693 10.3627 24.3092 10.3627 24.6864 10.74L28.3586 14.3995C28.5472 14.5882 28.6478 14.8271 28.6478 15.0912C28.6478 15.3427 28.5472 15.5942 28.3586 15.7703L24.6864 19.4298C24.4978 19.6185 24.2463 19.7191 24.0074 19.7191C23.7558 19.7191 23.5043 19.6185 23.3157 19.4298C22.9384 19.0526 22.9384 18.4364 23.3157 18.0591L25.3278 16.0595H20.1214V14.1229H25.3278L23.3157 12.1233C22.9384 11.7461 22.9384 11.1298 23.3157 10.7526Z" fill="#E5613E"/>
</g>
</svg>
